<?xml version="1.0" encoding="utf-8"?>
<!-- Generator: Adobe Illustrator 16.0.0, SVG Export Plug-In . SVG Version: 6.00 Build 0)  -->
<!DOCTYPE svg PUBLIC "-//W3C//DTD SVG 1.1//EN" "http://www.w3.org/Graphics/SVG/1.1/DTD/svg11.dtd">
<svg version="1.1" id="Capa_1" xmlns="http://www.w3.org/2000/svg" xmlns:xlink="http://www.w3.org/1999/xlink" x="0px" y="0px"
	 width="13px" height="13px" viewBox="0 0 13 13" enable-background="new 0 0 13 13" xml:space="preserve">
<g>
	<path fill="#666666" d="M8.514,6.5l4.408-4.408c0.104-0.105,0.104-0.276,0-0.384l-1.629-1.629C11.24,0.028,11.174,0,11.102,0
		c-0.071,0-0.141,0.028-0.191,0.079L6.502,4.488l-4.41-4.409c-0.102-0.103-0.281-0.103-0.383,0L0.08,1.708
		c-0.105,0.106-0.105,0.277,0,0.384L4.489,6.5L0.08,10.909c-0.105,0.104-0.105,0.276,0,0.382l1.629,1.631
		C1.76,12.973,1.829,13,1.901,13c0.071,0,0.142-0.027,0.19-0.078l4.41-4.408l4.407,4.408C10.961,12.973,11.029,13,11.1,13
		c0.072,0,0.142-0.027,0.191-0.078l1.629-1.631c0.104-0.104,0.104-0.275,0-0.382L8.514,6.5z"/>
</g>
</svg>
